<svg xmlns="http://www.w3.org/2000/svg" version="1.1" xmlns:xlink="http://www.w3.org/1999/xlink" xmlns:svgjs="http://svgjs.dev/svgjs" viewBox="0 0 800 800"><defs><linearGradient x1="50%" y1="0%" x2="50%" y2="100%" id="uundulate-grad"><stop stop-color="hsl(0, 0%, 100%)" stop-opacity="1" offset="45%"></stop><stop stop-color="hsl(0, 0%, 100%)" stop-opacity="1" offset="100%"></stop></linearGradient></defs><g stroke-width="2" stroke="url(#uundulate-grad)" fill="none"><path d="M2565.2475907320486 -464.17758873022353C2685.389731009651 131.11698225209625 2498.0404115040174 964.2059072921202 2134.6084178092415 1450.751841475675C1771.176424114466 1937.29777565923 1629.0076777655695 1724.7094675293474 820.7740209971203 1871.242895350842C12.540364228671024 2017.7763231723357 -1440.2324024711138 2581.347084233553 -1744.913134679317 2154.112295018845C-2049.59386688752 1726.8775058041379 -1043.518501393064 536.9308375316227 -641.6934936022519 -179.48409287974823C-239.86848581144 -895.8990232911193 -274.40718854987404 -1029.017286297465 183.84690271658292 -1284.6793709557378C642.1009939830401 -1540.341455614011 1061.801001140188 -1577.5999705364486 1557.9261444767449 -1406.662099239466C2054.0512878133013 -1235.7242279424831 2445.1054504544463 -1059.4721597125433 2565.2475907320486 -464.17758873022353C2685.389731009651 131.11698225209625 2498.0404115040174 964.2059072921202 2134.6084178092415 1450.751841475675 "></path><path d="M2506.7273525851524 -440.8213222115435C2623.622407990386 138.38420631179451 2441.336583606527 948.9572144588446 2087.727076227826 1422.353258529331C1734.1175688491262 1895.7493025998165 1595.791221050199 1688.90662441939 809.4017171673836 1831.4796893267899C23.012213284568134 1974.0527542341897 -1390.4964245854926 2522.3918731045633 -1686.9425424096903 2106.7039700848477C-1983.3886602338878 1691.0160670651321 -1004.5045208338765 533.2301195567393 -613.5396483887621 -163.822245167838C-222.57477594364764 -860.874609892415 -256.18000022969136 -990.3950820066973 189.68884532686116 -1239.147380593125C635.5576908834141 -1487.8996791795528 1043.9144546038824 -1524.151207212195 1526.6308102826943 -1357.8332783826982C2009.347165961506 -1191.5153495532015 2389.832297179918 -1020.0268507348817 2506.7273525851524 -440.8213222115435C2623.622407990386 138.38420631179451 2441.336583606527 948.9572144588446 2087.727076227826 1422.353258529331 "></path><path d="M2448.2071449558343 -417.46529983348864C2561.855115488701 145.65118623086823 2384.6327862266144 933.708277484945 2040.8457651639892 1393.9544314423615C1697.0587441013636 1854.2005853997784 1562.5747948524072 1653.1035371688085 798.0294438552255 1791.7162391621137C33.48409285804428 1930.3289411554188 -1340.7604161822933 2463.436417834948 -1628.9719196224853 2059.2954010102253C-1917.1834230626773 1655.1543841855023 -965.4905097571109 529.5291574412308 -585.3857726576939 -148.1606415965523C-205.28103555827715 -825.8504406343358 -237.952781391931 -951.7731218565546 195.53081845471752 -1193.6156343711373C629.0144183013658 -1435.4581468857198 1026.0279385851545 -1470.7026880285662 1495.3355066062218 -1309.0047016665555C1964.643074627289 -1147.306715304545 2334.5591744229678 -980.5817858978451 2448.2071449558343 -417.46529983348864C2561.855115488701 145.65118623086823 2384.6327862266144 933.708277484945 2040.8457651639892 1393.9544314423615 "></path><path d="M2389.6869068089363 -394.1090943499646C2500.087792469436 152.91834925541025 2327.9289583291247 918.4595236165133 1993.964423582574 1365.5557874608612C1659.9998888360233 1812.6520513052087 1529.3583381370372 1617.300633023695 786.6571400254893 1751.9529721029057C43.955941913941615 1886.6053111821166 -1291.0244382966719 2404.481145670803 -1571.0013273528584 2011.8870150410717C-1850.978216409045 1619.2928844113403 -926.4765291979234 525.8283784311916 -557.2319274442043 -132.4988549197983C-187.98732569048502 -790.8260882707879 -219.72559307174856 -913.1509786009433 201.37276106499576 -1148.0837050436808C622.4711152017398 -1383.016431486418 1008.141392048849 -1417.2539857394688 1464.0401724121712 -1260.1759418449442C1919.9389527754934 -1103.0978979504196 2279.2860211484385 -941.1365379553397 2389.6869068089363 -394.1090943499646C2500.087792469436 152.91834925541025 2327.9289583291247 918.4595236165133 1993.964423582574 1365.5557874608612 "></path><path d="M2331.166699179619 -370.7528278312848C2438.320499967749 160.18557331510874 2271.2251609492123 903.2108307832386 1947.0831125187365 1337.1572045145172C1622.941064088261 1771.1035782457952 1496.1419119392453 1581.4977899137384 775.2848667133308 1712.1897660788545C54.42782148741708 1842.881742243971 -1241.2884298934723 2345.525934541813 -1513.0307045656537 1964.4786901070743C-1784.7729792378348 1583.4314456723355 -887.4625181211577 522.1276604563081 -529.0780517131361 -116.83700720788761C-170.69358530511454 -755.8016748720836 -201.498374233988 -874.5287743101755 207.21473419285212 -1102.5517146810678C615.927842619692 -1330.5746550519598 990.2548760301211 -1363.8052224152152 1432.7448687356987 -1211.3471209881764C1875.2348614412763 -1058.889019561138 2224.0128983914874 -901.691228977678 2331.166699179619 -370.7528278312848C2438.320499967749 160.18557331510874 2271.2251609492123 903.2108307832386 1947.0831125187365 1337.1572045145172 "></path><path d="M2272.6464915503 -347.3967749356516C2376.553207466064 167.45258375176036 2214.5213635693003 887.9619243269162 1900.2018014548994 1308.7584079451253C1585.882239340499 1729.5548915633353 1462.925485741453 1545.6947331807341 763.9125934011727 1672.426346431756C64.89970106089254 1799.1579596827783 -1191.552421490273 2286.5705097897767 -1455.0600817784486 1917.0701515500295C-1718.5677420666243 1547.5697933102829 -848.448507044392 518.4267288583778 -500.92417598206816 -101.17537311902424C-153.39984491974406 -720.7774750964262 -183.2711553962274 -835.9067836424549 213.05670732070848 -1057.0199379415017C609.3845700376442 -1278.1330922405486 972.3683600113936 -1310.3566727140083 1401.4495650592266 -1162.5185137544556C1830.5307701070597 -1014.680354794903 2168.7397756345363 -862.2461336230632 2272.6464915503 -347.3967749356516C2376.553207466064 167.45258375176036 2214.5213635693003 887.9619243269162 1900.2018014548994 1308.7584079451253 "></path><path d="M2214.126405991294 -324.0407220400184C2314.78603703469 174.71959418841175 2157.8176882597 872.7130178705938 1853.3206124613748 1280.3596113757344C1548.8235366630493 1688.006204880875 1429.7091816139737 1509.8916764477299 752.5404421593271 1632.6629267846574C75.3717027046805 1755.434177121585 -1141.816291016761 2227.6150850377403 -1397.0893369209311 1869.6616129929853C-1652.3623828251013 1511.7081409482303 -809.4343738973139 514.7257972604475 -472.7701781806877 -85.51373903016065C-136.10598246406107 -685.7532753207688 -165.04381448815434 -797.284792974734 218.8988025188769 -1011.4881612019358C602.8414195259083 -1225.6915294291375 954.4819660629787 -1256.9081230128015 1370.1543834530667 -1113.689906520735C1785.8268008431546 -970.4716900286684 2113.4667749478986 -822.8010382684486 2214.126405991294 -324.0407220400184C2314.78603703469 174.71959418841175 2157.8176882597 872.7130178705938 1853.3206124613748 1280.3596113757344 "></path><path d="M2155.606198361976 -300.68457759165085C2253.018744533005 181.98669617779774 2101.1138908797875 857.4642029670067 1806.4393013975373 1251.9609063590779C1511.764711915287 1646.4576097511494 1396.4927554161818 1474.088711267461 741.168168847169 1592.8995986902942C85.84358227815619 1711.710486113127 -1092.0802826135616 2168.659751838438 -1339.1187141337261 1822.2531659886754C-1586.157145653891 1475.8465801389125 -770.4203628205481 511.02495721525156 -444.6163024496195 -69.85201338856268C-118.81224207869059 -650.7289839923772 -146.816595650394 -758.6627107542789 224.74077564673325 -965.9562929096354C596.2981469438605 -1173.249875064992 936.5954500442508 -1203.4594817588604 1338.8590797765942 -1064.8612077342798C1741.1227095089375 -926.2629337096992 2058.193652190947 -783.3558513610993 2155.606198361976 -300.68457759165085C2253.018744533005 181.98669617779774 2101.1138908797875 857.4642029670067 1806.4393013975373 1251.9609063590779 "></path><path d="M2097.085960215079 -277.3284331432833C2191.25142151374 189.25379816718373 2044.4100629822974 842.2153880634187 1759.557959816122 1223.5622013424213C1474.7058566499468 1604.9090146214235 1363.2762987008114 1438.285746087191 729.7958650174323 1553.13627059593C96.31543133405353 1667.9867951046685 -1042.3443047279402 2109.704418639136 -1281.1481218640993 1774.8447189843655C-1519.9519390002586 1439.9850193295943 -731.4063822613606 507.3241171700556 -416.46245723612947 -54.19028774696494C-101.51853221089846 -615.7046926639853 -128.58940733021154 -720.0406285338238 230.5827182570115 -920.424424617335C589.7548438442345 -1120.8082207008465 918.7089035079453 -1150.010840504919 1307.5637455825436 -1016.0325089478246C1696.4185876571423 -882.05417739073 2002.9204989164182 -743.9106644537502 2097.085960215079 -277.3284331432833C2191.25142151374 189.25379816718373 2044.4100629822974 842.2153880634187 1759.557959816122 1223.5622013424213 "></path><path d="M2038.5657525857605 -253.9722581773376C2129.4841290120544 196.52093067414762 1987.7062656023854 826.9666036774088 1712.676648752285 1195.163526843342C1437.6470319021846 1563.3604500092756 1330.0598725030195 1402.4828114244997 718.4235917052747 1513.372973019144C106.78731090752899 1624.2631346137878 -992.6082963247408 2050.749115957412 -1223.1774990768945 1727.4363024976333C-1453.746701829048 1404.1234890378546 -692.3923711845949 503.6233076424378 -388.3085815050615 -38.52853158778885C-84.2247918255282 -580.6803708180155 -110.36218849245097 -681.4185157957907 236.42469138486763 -874.8925258074566C583.2115712621862 -1068.3665358191226 900.8223874892174 -1096.5621687333999 1276.268441906071 -967.2037796437913C1651.7144963229252 -837.8453905541828 1947.647376159467 -704.4654470288228 2038.5657525857605 -253.9722581773376C2129.4841290120544 196.52093067414762 1987.7062656023854 826.9666036774088 1712.676648752285 1195.163526843342 "></path><path d="M1980.0455144388638 -230.61608321139192C2067.71680599279 203.78806318111174 1931.0024377048949 811.7178192913993 1665.7953071708698 1166.764852344264C1400.5881766368443 1521.8118853971282 1296.843415787649 1366.6798767618084 707.051287875538 1473.6096754423584C117.25915996342633 1580.539474122908 -942.8723184391195 1991.793813275688 -1165.2069068072676 1680.0278860109015C-1387.5414951754158 1368.261958746115 -653.3783906254074 499.9224981148202 -360.1547362915717 -22.866775428612527C-66.93108195773584 -545.6560489720456 -92.13500017226852 -642.7964030577573 242.26663399514587 -829.3606269975782C576.6682681625603 -1015.924850937399 882.9358409529118 -1043.1134969618806 1244.9731077120205 -918.375050339758C1607.0103744711296 -793.6366037176355 1892.3742228849387 -665.0202296038956 1980.0455144388638 -230.61608321139192C2067.71680599279 203.78806318111174 1931.0024377048949 811.7178192913993 1665.7953071708698 1166.764852344264 "></path><path d="M1921.5253068095453 -207.25993876302437C2005.949513491104 211.0551651704975 1874.298640324983 796.4690043878118 1618.9139961070323 1138.366147327607C1363.5293518890821 1480.2632902674022 1263.6269895898572 1330.876911581539 695.6790145633795 1433.8463473479942C127.73103953690202 1536.8157831144495 -893.13631003592 1932.8384800763856 -1107.2362840200626 1632.6194390065912C-1321.3362580042053 1332.4003979367967 -614.3643795486418 496.221658069624 -332.0008605605035 -7.205049787015014C-49.63734157236536 -510.63175764365394 -73.90778133450817 -604.1743208373022 248.10860712300223 -783.8287587052778C570.1249955805124 -963.4831965732535 865.0493249341844 -989.6648557079393 1213.6778040355484 -869.5463515533029C1562.3062831369125 -749.4278473986664 1837.1011001279876 -625.5750426965465 1921.5253068095453 -207.25993876302437C2005.949513491104 211.0551651704975 1874.298640324983 796.4690043878118 1618.9139961070323 1138.366147327607 "></path><path d="M1863.0050991802273 -183.90376379707868C1944.1822209894176 218.32229767746162 1817.594842945071 781.2202200018023 1572.0326850431957 1109.9674728285281C1326.47052714132 1438.7147256552548 1230.4105633920653 1295.0739769188476 684.3067412512219 1394.0830497712086C138.20291911037748 1493.0921226235696 -843.4003016327206 1873.8831773946622 -1049.2656612328578 1585.2110225198599C-1255.131020832995 1296.5388676450575 -575.3503684718761 492.52084854200643 -303.84698482943554 8.45670637216108C-32.343601186994874 -475.60743579768405 -55.6805624967476 -565.5522080992689 253.9505802508586 -738.2968598953994C563.5817229984646 -911.0415116915298 847.1628089154565 -936.2161839364201 1182.382500359076 -820.7176222492695C1517.6021918026954 -705.2190605621191 1781.827977371037 -586.1298252716192 1863.0050991802273 -183.90376379707868C1944.1822209894176 218.32229767746162 1817.594842945071 781.2202200018023 1572.0326850431957 1109.9674728285281 "></path><path d="M1804.4848915509087 -160.54761934871135C1882.4149284877317 225.58939966684738 1760.8910455651585 765.9714050982145 1525.1513739793581 1081.5687678118716C1289.4117023935578 1397.1661305255288 1197.1941371942735 1259.2710117385782 672.9344679390633 1354.3197216768444C148.67479868385294 1449.3684316151111 -793.6642932295211 1814.9278441953597 -991.2950384456528 1537.8025755155495C-1188.9257836617846 1260.6773068357393 -536.3363573951104 488.8200084968105 -275.6931090983676 24.118432013759048C-15.04986080162439 -440.5831444692924 -37.45334365898702 -526.9301258788138 259.79255337871473 -692.764991603099C557.0384504164165 -858.5998573273841 829.2762928967286 -882.7675426824788 1151.0871966826035 -771.8889234628144C1472.8981004684783 -661.0103042431499 1726.5548546140858 -546.6846383642701 1804.4848915509087 -160.54761934871135C1882.4149284877317 225.58939966684738 1760.8910455651585 765.9714050982145 1525.1513739793581 1081.5687678118716 "></path><path d="M1745.964653404012 -137.19144438276567C1820.6476054684672 232.8565321738115 1704.187217667668 750.7226207122048 1478.270032397943 1053.1700933127931C1252.352847128218 1355.617565913381 1163.9776804789035 1223.4680770758869 661.5621641093269 1314.5564241000588C159.14664773975028 1405.6447711242308 -743.9283153438998 1755.9725415136354 -933.324446176026 1490.3941590288177C-1122.7205770081523 1224.8157765439996 -497.3223768359228 485.11919896919267 -247.53926388487753 39.78018817293514C2.243849066167968 -405.5588226233225 -19.226155338804574 -488.30801314078053 265.63449598899274 -647.2330927932205C550.4951473167905 -806.1581724456605 811.389746360423 -829.3188709109595 1119.7918624885529 -723.0601941587811C1428.1939786166827 -616.8015174066027 1671.281701339557 -507.23942093934284 1745.964653404012 -137.19144438276567C1820.6476054684672 232.8565321738115 1704.187217667668 750.7226207122048 1478.270032397943 1053.1700933127931 "></path><path d="M1687.4444457746936 -113.835299934398C1758.8803129667813 240.1236341631975 1647.483420287756 735.4738058086173 1431.3887213341059 1024.7713882961361C1215.2940223804558 1314.0689707836555 1130.7612542811112 1187.665111895617 650.1898907971686 1274.7930960056947C169.61852731322597 1361.921080115772 -694.1923069407003 1697.0172083143339 -875.3538233888211 1442.9857120245078C-1056.5153398369418 1188.9542157346818 -458.30836575915714 481.41835892399695 -219.38538815380934 55.44191381453311C19.537589451538224 -370.53453129493073 -0.998936501044227 -449.6859309203254 271.4764691168491 -601.7012245009201C543.9518747347424 -753.716518081515 793.5032303416956 -775.8702296570184 1088.4965588120804 -674.231495372326C1383.4898872824656 -572.5927610876336 1616.0085785826063 -467.7942340319937 1687.4444457746936 -113.835299934398C1758.8803129667813 240.1236341631975 1647.483420287756 735.4738058086173 1431.3887213341059 1024.7713882961361 "></path><path d="M1628.924238145375 -90.47912496845242C1697.1130204650954 247.3907666701616 1590.779622907844 720.2250214226076 1384.5074102702683 996.3727137970573C1178.2351976326936 1272.5204061715076 1097.5448280833193 1151.8621772329257 638.8176174850103 1235.029798428909C180.09040688670143 1318.197419624892 -644.4562985375009 1638.06190563261 -817.3832006016162 1395.5772955377756C-990.3101026657314 1153.0926854429417 -419.2943546823915 477.71754939637935 -191.2315124227414 71.1036699737092C36.83132983690848 -335.51020944896084 17.228282336716575 -411.06381818229215 277.31844224470547 -556.1693256910416C537.4086021526946 -701.2748331997913 775.6167143229677 -722.4215578854992 1057.2012551356083 -625.4027660682927C1338.7857959482485 -528.3839742510863 1560.7354558256552 -428.34901660706646 1628.924238145375 -90.47912496845242C1697.1130204650954 247.3907666701616 1590.779622907844 720.2250214226076 1384.5074102702683 996.3727137970573 "></path><path d="M1570.4039999984789 -67.12295000250685C1635.3456974458313 254.6578991771255 1534.0757950103534 704.9762370365979 1337.6260686888531 967.9740392979788C1141.1763423673528 1230.9718415593597 1064.3283713679493 1116.0592425702343 627.445313655274 1195.2665008521226C190.56225594259877 1274.4737591340117 -594.7203206518795 1579.1066029508856 -759.4126083319893 1348.1688790510439C-924.1048960120992 1117.231155151202 -380.28037412320396 474.0167398687613 -163.07766720925144 86.7654261328853C54.12503970470107 -300.48588760299094 35.4554706568988 -372.4417054442589 283.1603848549837 -510.63742688116326C530.8652990530684 -648.8331483180675 757.7301677866619 -668.9728861139797 1025.9059209415577 -576.5740367642594C1294.0816740964528 -484.1751874145391 1505.462302551126 -388.9037991821392 1570.4039999984789 -67.12295000250685C1635.3456974458313 254.6578991771255 1534.0757950103534 704.9762370365979 1337.6260686888531 967.9740392979788 "></path><path d="M1511.8837923691603 -43.76680555413918C1573.578404944145 261.9250011665115 1477.371997630441 689.7274221330101 1290.744757625016 939.5753342813223C1104.1175176195911 1189.4232464296342 1031.111945170157 1080.256277389965 616.0730403431157 1155.5031727577589C201.03413551607446 1230.7500681255533 -544.9843122486801 1520.1512697515836 -701.4419855447844 1300.760432046734C-857.8996588408887 1081.369594341884 -341.2663630464383 470.3158998235656 -134.9237914781835 102.42715177448326C71.41878009007132 -265.4615962745993 53.68268949465937 -333.8196232238038 289.00235798283984 -465.1055585888629C524.3220264710205 -596.391493953922 739.8436517679345 -615.5242448600386 994.6106172650852 -527.7453379778042C1249.3775827622358 -439.9664310955699 1450.1891797941753 -349.45861227478997 1511.8837923691603 -43.76680555413918C1573.578404944145 261.9250011665115 1477.371997630441 689.7274221330101 1290.744757625016 939.5753342813223 "></path><path d="M1453.3637068101543 -20.410661105771737C1511.811234512771 269.19210315589726 1420.6683223208415 674.4786072294223 1243.863568631491 911.1766292646655C1067.058814942141 1147.8746512999082 997.8956410426777 1044.453312209695 604.7008891012699 1115.739844663395C211.5061371598622 1187.0263771170949 -495.2481817751682 1461.1959365522816 -643.471240687267 1253.3519850424236C-791.6942995993658 1045.508033532566 -302.25222989936015 466.61505977836964 -106.76979367680292 118.088877416081C88.7126425457543 -230.43730494620752 71.91003040273245 -295.19754100334865 294.8444531810087 -419.5736902965625C517.7788759592852 -543.9498395897765 721.9572578195193 -562.0756036060975 963.3154356589253 -478.9166391913491C1204.6736134983312 -395.75767477660077 1394.9161791075371 -310.01342536744085 1453.3637068101543 -20.410661105771737C1511.811234512771 269.19210315589726 1420.6683223208415 674.4786072294223 1243.863568631491 911.1766292646655 "></path><path d="M1394.8435296984135 2.9454833425958213C1450.0439725286633 276.45920514528325 1363.9645554585077 659.2297923258348 1196.9822880852325 882.7779242480087C1030.000020711957 1106.3260561701825 964.6792453624639 1008.6503470294256 593.32864630669 1075.976516569031C221.978047250916 1143.3026861086364 -445.5121428543906 1402.2406033529796 -585.5005873824839 1205.9435380381137C-725.4890319105772 1009.6464727232483 -263.23818830501637 462.9142197331739 -78.61588742815684 133.75060305767897C106.00641344870292 -195.41301361781575 90.13727975807114 -256.5754587828935 300.6864568264432 -374.0418220042622C511.23563389481524 -491.5081852256309 704.0707723183698 -508.6269623521563 932.0201625000309 -430.08794040489397C1159.9695526816922 -351.54891845763166 1339.6430868681646 -270.5682384600917 1394.8435296984135 2.9454833425958213C1450.0439725286633 276.45920514528325 1363.9645554585077 659.2297923258348 1196.9822880852325 882.7779242480087 "></path><path d="M1336.3233220690954 26.301627790963266C1388.2766800269774 283.72630713466924 1307.2607580785952 643.9809774222472 1150.100977021395 854.3792192313517C992.9411959641948 1064.7774610404567 931.4628191646718 972.8473818491561 581.9563729945316 1036.213188474667C232.4499268243917 1099.5789951001782 -395.7761344511912 1343.2852701536776 -527.5299645952789 1158.5350910338038C-659.2837947393668 973.7849119139305 -224.2241772282507 459.213379687978 -50.46201169708877 149.41232869927694C123.30015383407317 -160.3887222894241 108.3644985958316 -217.9533765624384 306.52842995429955 -328.5099537119618C504.6923613127674 -439.0665308614853 686.1842562996421 -455.17832109821506 900.7248588235586 -381.2592416184388C1115.2654613474751 -307.34016213866244 1284.3699641112134 -231.12305155274248 1336.3233220690954 26.301627790963266C1388.2766800269774 283.72630713466924 1307.2607580785952 643.9809774222472 1150.100977021395 854.3792192313517 "></path><path d="M1277.8031144397773 49.657772239330825C1326.5093875252915 290.99340912405523 1250.5569606986828 628.7321625186596 1103.2196659575577 825.9805142146952C955.8823712164326 1023.228865910731 898.24639296688 937.0444166688867 570.5840996823736 996.4498603803033C242.92180639786716 1055.8553040917197 -346.04012604799175 1284.3299369543752 -469.55934180807407 1111.126644029494C-593.0785575681564 937.9233511046125 -185.21016615148505 455.51253964278203 -22.3081359660207 165.0740543408749C140.59389421944377 -125.36443096103233 126.59171743359207 -179.33129434198327 312.3704030821557 -282.97808541966145C498.1490887307193 -386.62487649733976 668.2977402809145 -401.7296798442739 869.4295551470861 -332.43054283198364C1070.5613700132578 -263.1314058196933 1229.0968413542623 -191.67786464539336 1277.8031144397773 49.657772239330825C1326.5093875252915 290.99340912405523 1250.5569606986828 628.7321625186596 1103.2196659575577 825.9805142146952 "></path><path d="M1219.2828762928802 73.01391668769838C1264.7420645060272 298.260511113441 1193.8531328011927 613.4833476150716 1056.3383243761425 797.5818091980382C918.8235159510923 981.680270781005 865.0299362515098 901.241451488617 559.2117958526374 956.6865322859392C253.3936554537645 1012.1316130832611 -296.3041481623704 1225.3746037550732 -411.58874953844725 1063.7181970251838C-526.873350914524 902.0617902952945 -146.19618559229752 451.8116995975861 5.8457092474692445 180.73577998247276C157.8876040872359 -90.34013963264056 144.81890575377452 -140.70921212152814 318.2123456924337 -237.44621712736114C491.6057856310931 -334.1832221331942 650.4111937446087 -348.28103859033274 838.1342209530355 -283.6018440455285C1025.8572481614626 -218.92264950072422 1173.8236880797335 -152.23267773804423 1219.2828762928802 73.01391668769838C1264.7420645060272 298.260511113441 1193.8531328011927 613.4833476150716 1056.3383243761425 797.5818091980382 "></path><path d="M1160.7626686635617 96.37009165364407C1202.974772004341 305.527643620405 1137.1493354212805 598.2345632290621 1009.4570133123052 769.1831346989597C881.7646912033301 940.1317061688574 831.8135100537177 865.4385168259257 547.8395225404788 916.9232347091533C263.86553502724007 968.407952592381 -246.56813975917095 1166.419301073349 -353.6181267512423 1016.3097805384518C-460.66811374331365 866.2002600035546 -107.18217451553187 448.11089006996826 33.999584978537314 196.39753614164874C175.18134447260638 -55.31581778667078 163.04612459153498 -102.08709938349489 324.05431882029006 -191.91431831748264C485.06251304904526 -281.7415372514705 632.5246777258812 -294.8323668188134 806.8389172765633 -234.7731147414952C981.1531568272453 -174.71386266417693 1118.5505653227829 -112.78746031311698 1160.7626686635617 96.37009165364407C1202.974772004341 305.527643620405 1137.1493354212805 598.2345632290621 1009.4570133123052 769.1831346989597 "></path><path d="M1102.2424305166653 119.72620558443339C1141.2074489850768 312.79471509221275 1080.4455075237902 582.9857178078964 962.57567173089 740.7843991647248C844.7058359379898 898.5830805215535 798.5970533383477 829.6355211280782 536.4672187107426 877.1598760972113C274.3373840831374 924.6842310663446 -196.83216187354964 1107.463937356469 -295.6475344816155 968.9013030165638C-394.4629070896814 830.3386686766587 -68.16819395634434 444.4100195071942 62.153430192027145 212.0592312656686C192.47505434039874 -20.291556975857134 181.27331291171743 -63.46504768061777 329.8962614305683 -146.38248054276045C478.5192099494193 -229.299913404903 614.6381311895752 -241.38375608245036 775.5435830825127 -185.94444647261815C936.4490349754501 -130.5051368627859 1063.2774120482538 -73.34230392334598 1102.2424305166653 119.72620558443339C1141.2074489850768 312.79471509221275 1080.4455075237902 582.9857178078964 962.57567173089 740.7843991647248 "></path><path d="M1043.7222228873468 143.08235003280106C1079.4401564833906 320.06181708159875 1023.741710143878 567.7369029043086 915.6943606670529 712.3856941480681C807.6470111902279 857.0344853918277 765.3806271405556 793.8325559478085 525.0949453985843 837.3965480028473C284.809263656613 880.960540057886 -147.09615347035015 1048.508604157167 -237.67691169441053 921.4928560122539C-328.2576699184709 794.4771078673409 -29.15418287957857 440.7091794619985 90.30730592309533 227.72095690726655C209.7687947257691 14.732734352534635 199.5005317494779 -24.84296546016276 335.73823455842455 -100.85061225046007C471.9759373673712 -176.85825904075745 596.7516151708478 -187.9351148285092 744.2482794060402 -137.115747686163C891.7449436412328 -86.29638054381678 1008.0042892913032 -33.897117015996855 1043.7222228873468 143.08235003280106C1079.4401564833906 320.06181708159875 1023.741710143878 567.7369029043086 915.6943606670529 712.3856941480681 "></path><path d="M985.2020152580285 166.43846396359027C1017.6728639817047 327.3288885534065 967.0379127639658 552.4880574831427 868.8130496032156 683.9869586138332C770.5881864424655 815.4858597445236 732.1642009427637 758.0295602499609 513.722672086426 797.633189390905C295.28114323008845 837.2368185318496 -97.36014506715071 989.5532404402866 -179.7062889072056 874.0843784903657C-262.0524327472605 758.6155165404448 9.859828197187085 437.0083088992244 118.46118165416328 243.3826520312864C227.0625351111396 49.75699516334828 217.72775058723846 13.7790862427143 341.5802076862809 -55.31877447573788C465.43266478532325 -124.41663519419001 578.8650991521199 -134.48650409214616 712.9529757295679 -88.28707941728595C847.0408523070155 -42.0876547424258 952.731166534352 5.548039373774145 985.2020152580285 166.43846396359027C1017.6728639817047 327.3288885534065 967.0379127639658 552.4880574831427 868.8130496032156 683.9869586138332 "></path><path d="M926.6818381462881 189.79460841195782C955.9056019975965 334.5959905427924 910.3341459016317 537.2392425795549 821.9317690569565 655.5882535971764C733.5293922122814 773.9372646147979 698.9478052625498 722.2265950696913 502.3504292918459 757.8698612965413C305.75305332114203 793.5131275233912 -47.62410614637315 930.5979072409846 -121.73563560242258 826.6759314860556C-195.84716505847194 722.7539557311268 48.873869791530865 433.30746885402857 146.61508790280948 259.04437767288425C244.3563060140881 84.78128649174005 235.95499994257716 52.40116846316943 347.4222113317153 -9.786906183437509C458.88942272085353 -71.97498083004444 560.9786136509706 -81.03786283820494 681.6577025706736 -39.45838063083079C802.3367914903765 2.121101576543367 897.4580742949795 44.99322628112333 926.6818381462881 189.79460841195782C955.9056019975965 334.5959905427924 910.3341459016317 537.2392425795549 821.9317690569565 655.5882535971764 "></path><path d="M868.1615999993915 213.1507833779035C894.1382789783324 341.8631230497565 853.6303180041414 521.9904581935455 775.0504274755413 627.1895790980977C696.4705369469411 732.3887000026502 665.7313485471796 686.4236604069999 490.9781254621096 718.1065637197553C316.2249023770396 749.7894670325109 2.1118717392481585 871.6426045592607 -63.765043332795756 779.2675149993238C-129.64195840483967 686.8924254393871 87.8878503507184 429.60665932641086 174.76893311629942 274.70613383206035C261.65001588188034 119.80560833770983 254.1821882627596 91.02328120120268 353.2641539419935 35.74499262644099C452.34611962122744 -19.533295948320756 543.0920671146648 -27.589191066685657 650.3623683766232 9.3703486732025C757.6326696385813 46.32988841309066 842.1849210204505 84.43844370605063 868.1615999993915 213.1507833779035C894.1382789783324 341.8631230497565 853.6303180041414 521.9904581935455 775.0504274755413 627.1895790980977 "></path><path d="M809.6414534052292 236.50692782627107C832.3710475118028 349.1302250391424 796.9265816593854 506.74164328995766 728.1691774468604 598.790874081441C659.4117732343352 690.8401048729244 632.5149833845439 650.6206952267304 479.60591318510774 678.3432356253915C326.6968429856713 706.0657760240524 51.84794117760384 812.6872713599585 -5.79435951043456 731.8590679950139C-63.436660198472964 651.0308646300691 126.9019224626403 425.9058192812149 202.92286988252363 290.3678594736582C278.94381730240707 154.8298996661016 272.4094681356763 129.6453634216578 359.1061881050059 81.2768609187413C445.8029080743356 32.90835841582481 525.2056121310934 25.859450187255504 619.0671257353068 58.19904745965766C712.9286393395205 90.53864473205977 786.9118592986558 123.88363061339976 809.6414534052292 236.50692782627107C832.3710475118028 349.1302250391424 796.9265816593854 506.74164328995766 728.1691774468604 598.790874081441 "></path><path d="M751.1212457759107 259.86310279221675C770.6037550101164 356.3973575461064 740.2227842794732 491.4928589039482 681.2878663830231 570.3921995823624C622.352948486573 649.2915402607767 599.298557186752 614.8177605640391 468.2336398729494 638.5799380486056C337.1687225591468 662.3421155331723 101.58394958080333 753.7319686782344 52.176263276770385 684.4506515082819C2.768576972737435 615.1693343383293 165.91593353940596 422.2050097535971 231.0767456135917 306.0296156328343C296.23755768777755 189.85422151207143 290.6366869734368 168.2674761596911 364.9481612328623 126.8087597286198C439.25963549228777 85.3500432975485 507.31909611236574 79.30812195877479 587.7718220588345 107.02777676369095C668.2245480053032 134.74743156860706 731.6387365417049 163.328848038327 751.1212457759107 259.86310279221675C770.6037550101164 356.3973575461064 740.2227842794732 491.4928589039482 681.2878663830231 570.3921995823624 "></path><path d="M692.6010381465924 283.2192472405842C708.8364625084305 363.66445953549237 683.518986899561 476.2440440003604 634.4065553191859 541.9934945657056C585.2941237388109 607.7429451310509 566.08213098896 579.0147953837695 456.8613665607911 598.8166099542416C347.64060213262235 618.6184245247139 151.31995798400277 694.7766354789323 110.14688606397533 637.0422045039719C68.97381414394789 579.3077735290115 204.92994461617167 418.50416970840126 259.23062134465977 321.69134127443226C313.5312980731479 224.8785128404632 308.86390581119736 206.88955838014624 370.79013436071864 172.34062802092012C432.7163629102397 137.79169766169406 489.4325800936381 132.756763212716 556.4765183823621 155.85647555014606C623.5204566710859 178.95618788757616 676.3656137847541 202.77403494567614 692.6010381465924 283.2192472405842C708.8364625084305 363.66445953549237 683.518986899561 476.2440440003604 634.4065553191859 541.9934945657056 "></path><path d="M634.0807999996957 306.57539168895175C647.0691394891662 370.93156152487825 626.8151590020707 460.99522909677273 587.5252137377706 513.5947895490489C548.2352684734706 566.1943500013251 532.8656742735898 543.2118302035 445.4890627310548 559.0532818598776C358.1124511885198 574.8947335162554 201.05593586962408 635.8213022796303 168.11747833360215 589.6337574996619C135.17902079758016 543.4462127196936 243.9439251753592 414.80332966320543 287.3844665581497 337.35306691603023C330.82500794094017 259.9028041688549 327.0910941313798 245.51164060060137 376.63207697099676 217.8724963132205C426.1730598106137 190.23335202583962 471.5460335573324 186.20540446665717 525.1811841883116 204.68517433660122C578.8163348192907 223.16494420654533 621.0924605102252 242.21922185302532 634.0807999996957 306.57539168895175C647.0691394891662 370.93156152487825 626.8151590020707 460.99522909677273 587.5252137377706 513.5947895490489 "></path><path d="M575.5606228879553 329.9315361373193C585.3018775050582 378.1986635142641 570.1113921397366 445.74641419318505 540.6439331915116 485.1960845323922C511.1764742432865 524.6457548715994 499.64927859337604 507.4088650232304 434.1168199364747 519.2899537655137C368.5843612795734 531.1710425077971 250.79197479040164 576.8659690803281 226.08813163838516 542.2253104953519C201.38428848636875 507.58465191037567 282.957966769703 411.1024896180095 315.53837280679585 353.0147925576281C348.1187788438888 294.9270954972467 345.3183434867184 284.1337228210565 382.47408061643114 263.4043646055208C419.6298177461439 242.67500638998519 453.65954805618287 239.65404572059833 493.88591102941723 253.51387312305638C534.1122740026516 267.37370052551444 565.8193682708525 281.66440876037444 575.5606228879553 329.9315361373193C585.3018775050582 378.1986635142641 570.1113921397366 445.74641419318505 540.6439331915116 485.1960845323922 "></path><path d="M517.0404152586369 353.2876958444759C523.5345850033722 385.4657807624391 513.4075947598244 430.49761454838637 493.7626221276744 456.7973947745245C474.11764949552435 483.09717500066256 466.43285239558395 471.60591510175004 422.74454662431646 479.5266409299388C379.05624085304896 487.4473667581277 300.52798319360113 517.9106511398152 284.0587544255901 494.81687874983095C267.58952565757914 471.7231063598467 321.9719778464687 407.4016648316027 343.6922485378639 368.6765334580151C365.41251922925915 329.95140208442746 363.54556232447896 322.7558203003007 388.31605374428744 308.93624815661025C413.0865451640959 295.1166760129198 435.77303203745527 293.10270223332856 462.59060735294486 302.3425871683006C489.4081826684344 311.58247210327266 510.5462455139017 321.10961092651263 517.0404152586369 353.2876958444759C523.5345850033722 385.4657807624391 513.4075947598244 430.49761454838637 493.7626221276744 456.7973947745245 "></path><path d="M458.5201923705294 376.64384029284344C461.767277242897 392.73288275182506 456.70378212112314 415.2487996447986 446.8812958050481 428.3986897578677C437.0588094889731 441.54857987093675 433.2164109390029 435.8029499214805 411.37225805336914 439.7633128355749C389.5281051677354 443.7236757496693 350.2639763380115 458.95531794051305 342.029361954006 447.40843174552094C333.79474757000054 435.86154555052883 360.9859736644453 403.7008247864068 371.84610901014287 384.338259099613C382.7062443558405 364.9756934128192 381.7727659034504 361.3779025207558 394.15801161335463 354.46811644891056C406.5432573232589 347.5583303770654 417.8865007599386 346.5513434872698 431.29528841768337 351.1712859547558C444.70407607542813 355.7912284222418 455.2731074981618 360.5547978338618 458.5201923705294 376.64384029284344C461.767277242897 392.73288275182506 456.70378212112314 415.2487996447986 446.8812958050481 428.3986897578677 "></path></g></svg>